<?xml version="1.0" encoding="UTF-8" standalone="no" ?>
<!DOCTYPE svg PUBLIC "-//W3C//DTD SVG 1.1//EN" "http://www.w3.org/Graphics/SVG/1.1/DTD/svg11.dtd">
<svg xmlns="http://www.w3.org/2000/svg" xmlns:xlink="http://www.w3.org/1999/xlink" version="1.1" width="1280" height="1024" viewBox="0 0 1280 1024" xml:space="preserve">
<desc>Created with Fabric.js 5.3.0</desc>
<defs>
</defs>
<g transform="matrix(1 0 0 1 640 512)" id="background-logo"  >
<rect style="stroke: none; stroke-width: 0; stroke-dasharray: none; stroke-linecap: butt; stroke-dashoffset: 0; stroke-linejoin: miter; stroke-miterlimit: 4; fill: rgb(255,255,255); fill-opacity: 0; fill-rule: nonzero; opacity: 1;"  paint-order="stroke"  x="-640" y="-512" rx="0" ry="0" width="1280" height="1024" />
</g>
<g transform="matrix(1.4547335741715135 0 0 1.4547335741715135 283.84479446792164 512.1918939684978)" id="logo-logo"  >
<g style=""  paint-order="stroke"   >
		<g transform="matrix(1.9746330074074123 0 0 1.9746330074074123 8.091741296220789 24.28828803055876)"  >
<path style="stroke: none; stroke-width: 1; stroke-dasharray: none; stroke-linecap: butt; stroke-dashoffset: 0; stroke-linejoin: miter; stroke-miterlimit: 4; fill: rgb(100,120,219); fill-rule: nonzero; opacity: 1;"  paint-order="stroke"  transform=" translate(-54.09784570834075, -62.30015317711376)" d="M 82.6559372 33.7337532 C 82.1910553 33.2688713 81.7115173 32.8278465 81.2252274 32.3984795 C 80.66361239999999 34.2206421 80.1106415 35.958519 79.56643679999999 37.6170655 C 84.2879715 42.538986300000005 86.8879853 48.977398 86.8879853 55.8187676 C 86.8879853 62.8487092 84.1501237 69.45688630000001 79.1793824 74.4276276 C 73.4323426 80.17466739999999 53.51417169999999 87.6727906 24.533264199999998 94.998848 C 23.2487641 95.3229752 22.381225599999997 94.6331101 22.0699044 94.3201828 C 21.7577821 94.0080643 21.0663129 93.14292139999999 21.391239199999998 91.8568268 L 21.391239199999998 91.8567734 C 23.143873199999998 84.923317 24.906160399999997 78.51551819999999 26.652191199999997 72.6895447 C 27.139280399999997 71.0642624 27.625120199999998 69.48314669999999 28.1090584 67.9509964 C 33.1416226 52.0184326 37.973856 41.19916529999999 41.962461499999996 37.21030809999999 C 41.96251109999999 37.210258499999995 41.96251109999999 37.21030809999999 41.9625645 37.210258499999995 C 47.0933132 32.0804062 53.8319416 29.514905899999995 60.5705204 29.514905899999995 C 63.0882549 29.514905899999995 65.6057339 29.873645799999995 68.0394878 30.589675899999996 C 68.5194683 29.068881999999995 69.0012111 27.499620399999998 69.4838466 25.889692299999997 C 58.85170170000001 22.742513699999996 46.8621234 25.356433899999995 38.485906500000006 33.733753199999995 L 38.48585690000001 33.733852399999996 C 33.29017820000001 38.929176299999995 28.08559980000001 51.963211099999995 23.79157440000001 65.35308839999999 C 23.26536930000001 66.9939728 22.75416940000001 68.638916 22.25697700000001 70.2768021 C 20.01590150000001 77.6597367 18.08529850000001 84.8726502 16.62457840000001 90.6515503 L 16.62457840000001 90.6516037 C 15.970724000000011 93.23981479999999 16.70621100000001 95.91040799999999 18.59254640000001 97.7975388 C 20.0259075 99.2309036 21.9122429 100 23.8706074 100 C 24.4900494 100 25.1166935 99.923172 25.7385369 99.7655106 C 43.259769500000004 95.3365784 73.9541474 86.6067734 82.6559373 77.90418249999999 C 88.5558396 72.00508119999999 91.80510720000001 64.1620179 91.80510720000001 55.81876759999999 C 91.8051071 47.4763107 88.5558395 39.6328545 82.6559372 33.7337532 z" stroke-linecap="round" />
</g>
		<g transform="matrix(1.9746330074074123 0 0 1.9746330074074123 -8.091743865903481 -24.273754811026805)"  >
<path style="stroke: none; stroke-width: 1; stroke-dasharray: none; stroke-linecap: butt; stroke-dashoffset: 0; stroke-linejoin: miter; stroke-miterlimit: 4; fill: rgb(53,85,205); fill-rule: nonzero; opacity: 1;"  paint-order="stroke"  transform=" translate(-45.902153090312275, -37.707207217325056)" d="M 18.7748203 67.601265 C 19.336488699999997 65.7789994 19.8894539 64.04107669999999 20.433666199999998 62.382427299999996 C 15.712075199999997 57.46015559999999 13.112010899999998 51.022045199999994 13.112010899999998 44.18022549999999 C 13.112010899999998 37.151084999999995 15.849879199999998 30.54250729999999 20.8206176 25.57176789999999 C 26.5684604 19.82392509999999 46.4866294 12.32580099999999 75.4667358 5.000944199999992 C 75.7020263 4.941320999999992 75.92291259999999 4.915710999999992 76.12939449999999 4.915710999999992 C 77.0513534 4.915710999999992 77.67559809999999 5.423909299999992 77.93009179999999 5.678808799999992 C 78.24221799999998 5.991330699999992 78.93368519999999 6.856067799999992 78.60875699999998 8.142570099999991 C 78.60875699999998 8.142619699999992 78.60871119999999 8.142719799999991 78.60871119999999 8.142769399999992 C 76.85462179999999 15.081526299999991 75.09098809999999 21.49392749999999 73.34360499999998 27.323502099999992 C 72.85631559999999 28.94918489999999 72.37027739999998 30.53085189999999 71.88613889999998 32.06330159999999 C 66.85527799999997 47.98731279999999 62.02484129999998 58.80083139999999 58.03753659999998 62.78868539999999 C 53.06679529999998 67.75942289999999 46.45861809999998 70.4972921 39.42947769999998 70.4972921 C 36.862125399999975 70.4972921 34.35234449999998 70.1281973 31.95676229999998 69.4224706 C 31.47667499999998 70.9440694 30.99468609999998 72.5144811 30.51184839999998 74.1253057 C 33.36966319999998 74.9722906 36.36518089999998 75.414414 39.429477599999984 75.414414 C 47.77193059999998 75.414414 55.614990099999986 72.1651464 61.514091399999984 66.26524409999999 C 62.873870799999985 64.9054647 64.23429859999999 63.00877059999999 65.57892599999998 60.70937399999999 C 66.11673729999998 59.78961619999999 66.65204609999998 58.80543189999999 67.18375389999999 57.76537759999999 C 67.44965359999999 57.24537329999999 67.71460719999999 56.711315699999986 67.97851559999998 56.164452199999985 C 68.50637049999997 55.070675499999986 69.03012079999998 53.92537749999998 69.54867549999997 52.73706499999999 C 70.06723019999997 51.54875249999999 70.58062739999997 50.317471199999986 71.08777609999997 49.051777499999986 C 71.59492479999997 47.786083799999986 72.09587089999997 46.48607699999999 72.58946219999997 45.160160699999985 C 73.21910849999998 43.46894899999999 73.83670039999997 41.735722199999984 74.44023119999997 39.978287399999985 C 75.04376969999997 38.22090209999998 75.63324729999997 36.43925919999999 76.20667249999997 34.651360199999985 C 76.73313119999997 33.009869299999984 77.24452959999996 31.364327099999986 77.74187449999997 29.725887899999986 C 78.10371379999997 28.533974299999986 78.45414709999997 27.350311899999987 78.79913309999996 26.172552699999986 C 80.59128549999997 20.054016699999988 82.15029119999997 14.194680799999986 83.37541939999997 9.347839899999986 L 83.37532019999998 9.347839899999986 L 83.37536599999997 9.347639599999987 C 83.37536599999997 9.347589999999986 83.37541939999997 9.347489899999987 83.37541939999997 9.347439299999987 C 84.02927379999997 6.759630199999988 83.29378489999996 4.088588199999987 81.40744759999997 2.2022523999999875 C 79.52031689999997 0.31511639999998753 76.84807569999997 -0.41917010000001254 74.26146679999997 0.23348449999998744 C 56.7402306 4.6624117 26.0466557 13.3914165 17.3440628 22.0948124 C 11.444160499999999 27.994312299999997 8.1948929 35.8373718 8.1948929 44.1802254 C 8.1948929 52.523078999999996 11.444160499999999 60.3661385 17.3440628 66.26524359999999 C 17.8078423 66.7290726 18.2876797 67.1704941 18.7748203 67.601265 z" stroke-linecap="round" />
</g>
</g>
</g>
<g transform="matrix(1.9211538461538462 0 0 1.9211538461538462 778.595418747599 521.4898943531132)" id="text-logo"  >
<g style=""  paint-order="stroke"   >
		<g transform="matrix(1 0 0 1 0 0)" id="text-logo-path-0"  >
<path style="stroke: rgb(255,255,255); stroke-width: 0; stroke-dasharray: none; stroke-linecap: butt; stroke-dashoffset: 0; stroke-linejoin: miter; stroke-miterlimit: 4; fill: rgb(53,85,205); fill-rule: nonzero; opacity: 1;"  paint-order="stroke"  transform=" translate(-163.17, 17.15)" d="M 2.45 -4.9 L 7.35 -4.9 L 7.35 0 L 26.95 0 L 26.95 -4.9 L 31.85 -4.9 L 31.85 -14.7 L 22.05 -14.7 L 22.05 -4.9 L 17.15 -4.9 L 17.15 -9.8 L 12.25 -9.8 L 12.25 -49 L 2.45 -49 Z M 41.37 -4.9 L 46.27 -4.9 L 46.27 0 L 60.97 0 L 60.97 9.8 L 56.07 9.8 L 56.07 4.9 L 41.37 4.9 L 41.37 9.8 L 46.27 9.8 L 46.27 14.7 L 65.87 14.7 L 65.87 9.8 L 70.77 9.8 L 70.77 -34.3 L 60.97 -34.3 L 60.97 -4.9 L 56.07 -4.9 L 56.07 -9.8 L 51.17 -9.8 L 51.17 -34.3 L 41.37 -34.3 Z M 104.79 -34.3 L 80.29 -34.3 L 80.29 0 L 90.09 0 L 90.09 -29.4 L 94.99 -29.4 L 94.99 -24.5 L 99.89 -24.5 L 99.89 0 L 109.69 0 L 109.69 -29.4 L 104.79 -29.4 Z M 138.81 -34.3 L 138.81 -19.6 L 143.71 -19.6 L 143.71 -24.5 L 148.61 -24.5 L 148.61 -34.3 Z M 119.21 0 L 129.01 0 L 129.01 -14.7 L 133.91 -14.7 L 133.91 -9.8 L 138.81 -9.8 L 138.81 0 L 148.61 0 L 148.61 -9.8 L 143.71 -9.8 L 143.71 -14.7 L 138.81 -14.7 L 138.81 -19.6 L 129.01 -19.6 L 129.01 -49 L 119.21 -49 Z M 177.73 -19.6 L 177.73 -4.9 L 172.83 -4.9 L 172.83 -9.8 L 167.93 -9.8 L 167.93 -14.7 L 158.13 -14.7 L 158.13 -4.9 L 163.03 -4.9 L 163.03 0 L 182.63 0 L 182.63 -4.9 L 187.53 -4.9 L 187.53 -19.6 L 182.63 -19.6 L 182.63 -24.5 L 177.73 -24.5 L 177.73 -29.4 L 167.93 -29.4 L 167.93 -44.1 L 172.83 -44.1 L 172.83 -39.2 L 177.73 -39.2 L 177.73 -34.3 L 187.53 -34.3 L 187.53 -44.1 L 182.63 -44.1 L 182.63 -49 L 163.03 -49 L 163.03 -44.1 L 158.13 -44.1 L 158.13 -29.4 L 163.03 -29.4 L 163.03 -24.5 L 167.93 -24.5 L 167.93 -19.6 Z M 197.05 -4.9 L 201.95 -4.9 L 201.95 0 L 221.55 0 L 221.55 -4.9 L 226.45 -4.9 L 226.45 0 L 241.15 0 L 241.15 -4.9 L 246.05 -4.9 L 246.05 -34.3 L 236.25 -34.3 L 236.25 -4.9 L 231.35 -4.9 L 231.35 -9.8 L 226.45 -9.8 L 226.45 -34.3 L 216.65 -34.3 L 216.65 -4.9 L 211.75 -4.9 L 211.75 -9.8 L 206.85 -9.8 L 206.85 -34.3 L 197.05 -34.3 Z M 284.97 -29.4 L 280.07 -29.4 L 280.07 -34.3 L 260.47 -34.3 L 260.47 -29.4 L 255.57 -29.4 L 255.57 -24.5 L 265.37 -24.5 L 265.37 -29.4 L 270.27 -29.4 L 270.27 -24.5 L 275.17 -24.5 L 275.17 -19.6 L 260.47 -19.6 L 260.47 -14.7 L 255.57 -14.7 L 255.57 -4.9 L 260.47 -4.9 L 260.47 0 L 284.97 0 Z M 265.37 -9.8 L 265.37 -14.7 L 275.17 -14.7 L 275.17 -4.9 L 270.27 -4.9 L 270.27 -9.8 Z M 314.09 -4.9 L 309.19 -4.9 L 309.19 -9.8 L 304.29 -9.8 L 304.29 -29.4 L 309.19 -29.4 L 309.19 -24.5 L 314.09 -24.5 Z M 294.49 14.7 L 304.29 14.7 L 304.29 0 L 318.99 0 L 318.99 -4.9 L 323.89 -4.9 L 323.89 -29.4 L 318.99 -29.4 L 318.99 -34.3 L 294.49 -34.3 Z" stroke-linecap="round" />
</g>
</g>
</g>
</svg>